<svg width="1420" height="200" viewBox="0 0 1420 200" fill="none" xmlns="http://www.w3.org/2000/svg">
<path d="M785.65 90C806.277 90 823.365 107.447 826.272 130.145C826.997 130.07 827.732 130.022 828.472 130.022C842.662 130.022 854.22 143.816 854.536 160.948C856.908 159.43 859.629 158.562 862.536 158.562C871.619 158.562 879 167.014 879 177.415C879 187.816 869.707 199.218 860.624 199.218C783.641 199.501 732.494 200.385 655.776 199.81C645.446 199.81 636 194.202 636 182.373C636 170.55 644.386 160.948 654.716 160.948C657.408 160.948 659.962 161.603 662.278 162.775C666.469 154.829 674.078 149.509 682.775 149.509C686.198 149.509 689.463 150.34 692.412 151.825C694.054 139.763 703.17 130.507 714.164 130.507C722.843 130.507 730.355 136.269 733.94 144.63C737.15 142.458 740.815 141.062 744.726 140.684C744.642 139.47 744.596 138.256 744.596 137.015C744.596 111.063 762.991 90 785.65 90Z" fill="white"/>
<path d="M93.3499 90C72.7228 90 55.6351 107.447 52.7282 130.145C52.0027 130.07 51.2678 130.022 50.5283 130.022C36.3381 130.022 24.7804 143.816 24.4642 160.948C22.0922 159.43 19.3713 158.562 16.4645 158.562C7.3811 158.562 0 167.014 0 177.415C0 187.816 9.29265 199.218 18.376 199.218C95.3591 199.501 146.506 200.385 223.224 199.81C233.554 199.81 243 194.202 243 182.373C243 170.55 234.614 160.948 224.284 160.948C221.592 160.948 219.038 161.603 216.722 162.775C212.531 154.829 204.922 149.509 196.225 149.509C192.802 149.509 189.537 150.34 186.588 151.825C184.946 139.763 175.83 130.507 164.836 130.507C156.157 130.507 148.645 136.269 145.06 144.63C141.85 142.458 138.185 141.062 134.274 140.684C134.358 139.47 134.404 138.256 134.404 137.015C134.404 111.063 116.009 90 93.3499 90Z" fill="white" fill-opacity="0.7"/>
<path d="M1051.53 30C1091.85 30 1125.25 56.9633 1130.93 92.0418C1132.35 91.9266 1133.79 91.8525 1135.23 91.8525C1162.97 91.8525 1185.56 113.17 1186.18 139.647C1190.82 137.302 1196.13 135.96 1201.82 135.96C1219.57 135.96 1234 149.022 1234 165.096C1234 181.17 1215.84 198.792 1198.08 198.792C1047.6 199.228 947.62 200.594 797.657 199.706C777.465 199.706 759 191.039 759 172.759C759 154.487 775.392 139.647 795.584 139.647C800.848 139.647 805.839 140.66 810.367 142.47C818.558 130.19 833.432 121.968 850.433 121.968C857.124 121.968 863.506 123.252 869.27 125.548C872.479 106.906 890.298 92.6015 911.791 92.6015C928.755 92.6015 943.438 101.507 950.447 114.429C956.72 111.071 963.885 108.914 971.53 108.33C971.367 106.454 971.276 104.577 971.276 102.659C971.276 62.5518 1007.23 30 1051.53 30Z" fill="white" fill-opacity="0.5"/>
<path d="M1304.75 90C1330.22 90 1351.31 107.447 1354.9 130.145C1355.8 130.07 1356.71 130.022 1357.62 130.022C1375.14 130.022 1389.41 143.816 1389.8 160.948C1392.73 159.43 1396.08 158.562 1399.67 158.562C1410.89 158.562 1420 167.014 1420 177.415C1420 187.816 1408.53 199.218 1397.31 199.218C1302.27 199.501 1239.13 200.385 1144.41 199.81C1131.66 199.81 1120 194.202 1120 182.373C1120 170.55 1130.35 160.948 1143.11 160.948C1146.43 160.948 1149.58 161.603 1152.44 162.775C1157.62 154.829 1167.01 149.509 1177.75 149.509C1181.97 149.509 1186 150.34 1189.64 151.825C1191.67 139.763 1202.93 130.507 1216.5 130.507C1227.21 130.507 1236.49 136.269 1240.91 144.63C1244.88 142.458 1249.4 141.062 1254.23 140.684C1254.13 139.47 1254.07 138.256 1254.07 137.015C1254.07 111.063 1276.78 90 1304.75 90Z" fill="white" fill-opacity="0.7"/>
<path d="M343.603 0C298.613 0 261.344 31.7215 255.004 72.9904C253.421 72.8548 251.819 72.7677 250.206 72.7677C219.256 72.7677 194.048 97.8466 193.358 128.997C188.185 126.237 182.25 124.659 175.91 124.659C156.099 124.659 140 140.026 140 158.937C140 177.848 160.268 198.579 180.079 198.579C347.985 199.092 459.54 200.699 626.867 199.654C649.397 199.654 670 189.457 670 167.952C670 146.455 651.71 128.997 629.18 128.997C623.307 128.997 617.737 130.188 612.686 132.318C603.546 117.871 586.95 108.198 567.981 108.198C560.514 108.198 553.393 109.708 546.962 112.41C543.381 90.4779 523.499 73.6488 499.518 73.6488C480.589 73.6488 464.206 84.1259 456.385 99.3282C449.386 95.3775 441.392 92.8405 432.861 92.153C433.043 89.9453 433.145 87.7376 433.145 85.4814C433.145 38.2962 393.025 0 343.603 0Z" fill="white" fill-opacity="0.4"/>
<path d="M135.019 150C124.409 150 115.619 157.93 114.124 168.248C113.75 168.214 113.372 168.192 112.992 168.192C105.692 168.192 99.7471 174.462 99.5844 182.249C98.3643 181.559 96.9647 181.165 95.4694 181.165C90.7969 181.165 87 185.006 87 189.734C87 194.462 91.7802 199.645 96.4527 199.645C136.053 199.773 162.363 200.175 201.827 199.913C207.141 199.913 212 197.364 212 191.988C212 186.614 207.686 182.249 202.373 182.249C200.987 182.249 199.674 182.547 198.482 183.08C196.327 179.468 192.413 177.049 187.939 177.049C186.178 177.049 184.498 177.427 182.982 178.102C182.137 172.619 177.448 168.412 171.792 168.412C167.328 168.412 163.464 171.031 161.619 174.832C159.968 173.844 158.083 173.21 156.071 173.038C156.114 172.486 156.138 171.934 156.138 171.37C156.138 159.574 146.676 150 135.019 150Z" fill="white"/>
</svg>
